<svg width="36" height="36" viewBox="0 0 36 36" fill="none" xmlns="http://www.w3.org/2000/svg">
<path fill-rule="evenodd" clip-rule="evenodd" d="M0.00173888 8.99982C0.16578 8.99996 0.332086 9.04053 0.485643 9.12584L18 18.856L35.5144 9.12584C35.6679 9.04053 35.8342 8.99996 35.9983 8.99982C35.9861 6.82491 35.8897 5.64704 35.1213 4.87868C34.2426 4 32.8284 4 30 4H6C3.17157 4 1.75736 4 0.87868 4.87868C0.110317 5.64704 0.0138502 6.82491 0.00173888 8.99982ZM36 11.144L18.9713 20.6044C18.3672 20.9399 17.6328 20.9399 17.0287 20.6044L0 11.144V26C0 28.8284 0 30.2426 0.87868 31.1213C1.75736 32 3.17157 32 6 32H30C32.8284 32 34.2426 32 35.1213 31.1213C36 30.2426 36 28.8284 36 26V11.144Z" fill="#4A3AD1"/>
</svg>
