<svg width="178" height="132" viewBox="0 0 178 132" fill="none" xmlns="http://www.w3.org/2000/svg">
<path fill-rule="evenodd" clip-rule="evenodd" d="M46.9058 32.4725V29.5693C26.5221 29.5706 10 45.8802 10 66.0004C10 86.1207 26.5233 102.43 46.9058 102.43C67.2869 102.43 83.8102 86.1232 83.8102 66.0016L80.8895 66.0004C80.8908 84.5166 65.6644 99.5283 46.9058 99.5283C28.147 99.5283 12.9397 84.5166 12.9397 66.0004C12.9397 47.483 28.147 32.4725 46.9058 32.4725ZM46.9057 38.3504V35.4021C29.7861 35.4021 15.9062 49.1009 15.9062 66.0016C15.9062 82.9024 29.7861 96.6025 46.9057 96.6025C64.0241 96.6025 77.8824 82.9036 77.8824 66.0029L74.9363 66.0016C74.9363 81.2719 62.375 93.6516 46.9057 93.6516C31.4352 93.6516 18.8955 81.2719 18.8955 66.0016C18.8955 50.7313 31.4339 38.3504 46.9057 38.3504ZM46.9057 41.2951L46.9044 44.2271C34.7208 44.2271 24.8462 53.9772 24.8462 66.0016C24.8462 78.0285 34.7208 87.7762 46.9044 87.7762C59.0844 87.7762 68.9805 78.0285 68.9805 66.0016H71.9317C71.9317 79.6628 60.7411 90.7333 46.9044 90.7333C33.0666 90.7333 21.848 79.6615 21.848 66.0004C21.848 52.3417 33.0666 41.2963 46.9057 41.2951ZM46.9045 50.0272L46.9031 47.1253C36.3445 47.1266 27.7834 55.5775 27.7834 66.0004C27.7834 76.4257 36.3445 84.8768 46.9045 84.8768C57.4645 84.8768 66.0458 76.4257 66.0458 66.0004L63.1162 66.0016C63.1162 74.8254 55.8419 81.9774 46.9045 81.9774C37.9658 81.9774 30.7193 74.8254 30.7193 66.0004C30.7193 57.1778 37.9658 50.0272 46.9045 50.0272ZM150.245 66.0168V75.0375C150.245 76.6253 150.838 77.5302 152.34 77.5302C153.855 77.5302 154.412 76.6417 154.412 75.0375L154.413 66.0168H157.429V75.148C157.429 78.4679 155.697 80.0909 152.333 80.0909C148.929 80.0909 147.199 78.4679 147.199 75.148V66.0168H150.245ZM120.925 66.4786C119.953 66.0355 118.946 65.7958 117.674 65.7958C114.441 65.7958 113.046 67.6396 113.046 69.983C113.046 72.5334 114.876 73.3426 116.439 74.0335C117.603 74.5484 118.619 74.9978 118.619 76.053C118.619 77.0031 118.013 77.642 116.739 77.642C115.485 77.642 114.422 77.224 113.381 76.6442L112.988 79.1143C114.071 79.7407 115.411 80.0909 116.87 80.0909C119.897 80.0909 121.611 78.4316 121.611 75.7216C121.611 72.9879 119.641 72.1334 118.044 71.4407C116.955 70.9682 116.039 70.571 116.039 69.7044C116.039 68.9877 116.412 68.2785 117.936 68.2785C118.893 68.2785 119.739 68.5308 120.589 68.896L120.925 66.4786ZM145.747 66.0168V68.507H142.86V79.8511H139.815V68.507H136.927V66.0168H145.747ZM130.739 68.507V66.0168H121.917V68.507H124.805V79.8511H127.851V68.507H130.739ZM167.668 66.0168V68.507H164.78V79.8511H161.736V68.507H158.848V66.0168H167.668ZM108.128 74.0937L103.819 66.0168H101.038V79.8511H103.819V71.7754L108.128 79.8511H110.91V66.0168H108.128V74.0937ZM135.37 66.0168V79.8498H132.294V66.0168H135.37ZM97.9761 79.8498V66.0168H94.9017V79.8498H97.9761ZM46.9057 52.9316L46.9031 55.8348C41.2132 55.8348 36.604 60.3861 36.604 66.0016C36.604 71.6172 41.2145 76.1684 46.9031 76.1684C52.592 76.1684 57.2216 71.6172 57.2216 66.0016H60.1409C60.1409 73.2276 54.2233 79.0817 46.9044 79.0817C39.5857 79.0817 33.6514 73.2276 33.6514 66.0004C33.6514 58.7756 39.5844 52.9316 46.9057 52.9316ZM119.909 53.9207C119.909 48.6252 117.917 46.3433 113.791 46.3433C109.668 46.3433 107.674 48.6252 107.674 53.9207C107.674 59.2162 109.744 61.5182 113.791 61.5182C117.916 61.5182 119.909 59.3305 119.909 53.9207ZM101.217 46.5341C102.476 46.5341 104.115 46.7826 105.122 47.1843L104.813 49.6883C103.905 49.3256 102.477 49.0958 101.391 49.0958C98.7938 49.0958 97.0505 50.2607 97.0505 53.9307C97.0505 57.6586 98.7759 58.8208 101.004 58.8208C101.441 58.8208 101.971 58.7958 102.322 58.7356V55.1922H100.323V52.7095H105.355V60.6007C104.368 61.0588 102.554 61.3839 101.081 61.3839C96.5305 61.3839 93.8565 58.9777 93.8565 53.9697C93.8565 48.8461 96.7415 46.5341 101.217 46.5341ZM147.129 52.4233V46.7638H144.013V61.0977H147.129V54.98H151.799V61.0977H154.915V46.7638H151.799V52.4233H147.129ZM142.258 46.7638V49.3444H139.102V61.0977H135.949V49.3444H132.794V46.7638H142.258ZM131.495 49.3206V46.7638H122.341V61.0977H131.698V58.541H125.459V54.9964H130.583V52.4673H125.459V49.3206H131.495ZM167.155 46.7638V49.3206H161.118V52.4673H166.244V54.9964H161.118V58.541H167.359V61.0977H158.001V46.7638H167.155ZM110.868 53.922C110.867 50.1351 111.834 48.895 113.791 48.895C115.769 48.895 116.717 50.1164 116.717 53.922C116.717 57.7088 115.769 58.9866 113.812 58.9866C111.834 58.9866 110.868 57.7263 110.868 53.922ZM70.3525 29.5706C77.7858 29.5706 83.8115 35.5175 83.8115 42.8552C83.8115 50.1954 77.7858 56.1424 70.3525 56.1424C62.9166 56.1424 56.8909 50.1954 56.8922 42.8552C56.8922 35.5175 62.9166 29.5706 70.3525 29.5706ZM59.8918 42.8565C59.8918 37.153 64.5734 32.529 70.3525 32.529C76.1265 32.529 80.812 37.153 80.812 42.8565C80.812 48.5587 76.1265 53.1827 70.3525 53.1827C64.5734 53.1827 59.8918 48.5587 59.8918 42.8565Z" fill="#A0C814"/>
</svg>
