<svg width="36" height="36" viewBox="0 0 36 36" fill="none" xmlns="http://www.w3.org/2000/svg">
<path d="M23.76 18C23.76 19.1392 23.4222 20.2529 22.7893 21.2001C22.1563 22.1473 21.2568 22.8856 20.2043 23.3215C19.1518 23.7575 17.9936 23.8716 16.8763 23.6493C15.759 23.4271 14.7326 22.8785 13.9271 22.0729C13.1215 21.2674 12.5729 20.2411 12.3507 19.1237C12.1284 18.0064 12.2425 16.8482 12.6785 15.7957C13.1144 14.7432 13.8527 13.8437 14.7999 13.2107C15.7471 12.5778 16.8608 12.24 18 12.24C19.5262 12.2447 20.9885 12.8531 22.0677 13.9323C23.1469 15.0115 23.7553 16.4738 23.76 18ZM36 10.08V25.92C36 28.5934 34.938 31.1573 33.0476 33.0476C31.1573 34.938 28.5934 36 25.92 36H10.08C7.40662 36 4.84273 34.938 2.95236 33.0476C1.062 31.1573 0 28.5934 0 25.92V10.08C0 7.40662 1.062 4.84273 2.95236 2.95236C4.84273 1.062 7.40662 0 10.08 0H25.92C28.5934 0 31.1573 1.062 33.0476 2.95236C34.938 4.84273 36 7.40662 36 10.08ZM26.64 18C26.64 16.2912 26.1333 14.6207 25.1839 13.1999C24.2345 11.779 22.8851 10.6716 21.3064 10.0177C19.7276 9.36374 17.9904 9.19264 16.3144 9.52602C14.6384 9.85939 13.0989 10.6823 11.8906 11.8906C10.6823 13.0989 9.85939 14.6384 9.52602 16.3144C9.19264 17.9904 9.36374 19.7276 10.0177 21.3064C10.6716 22.8851 11.779 24.2345 13.1999 25.1839C14.6207 26.1333 16.2912 26.64 18 26.64C20.2915 26.64 22.4891 25.7297 24.1094 24.1094C25.7297 22.4891 26.64 20.2915 26.64 18ZM29.52 8.64C29.52 8.21279 29.3933 7.79518 29.156 7.43997C28.9186 7.08476 28.5813 6.80791 28.1866 6.64442C27.7919 6.48094 27.3576 6.43816 26.9386 6.5215C26.5196 6.60485 26.1347 6.81057 25.8327 7.11265C25.5306 7.41473 25.3248 7.79961 25.2415 8.21861C25.1582 8.6376 25.2009 9.07191 25.3644 9.4666C25.5279 9.86129 25.8048 10.1986 26.16 10.436C26.5152 10.6733 26.9328 10.8 27.36 10.8C27.9329 10.8 28.4823 10.5724 28.8874 10.1674C29.2924 9.76227 29.52 9.21287 29.52 8.64Z" fill="#4A3AD1"/>
</svg>
