<svg width="120" height="55" viewBox="0 0 120 55" fill="none" xmlns="http://www.w3.org/2000/svg">
<path fill-rule="evenodd" clip-rule="evenodd" d="M28.0888 2.19151V0C12.5748 0.00094789 0 12.3125 0 27.5004C0 42.6885 12.5758 55 28.0888 55C43.6007 55 56.1765 42.6904 56.1765 27.5014L53.9536 27.5004C53.9545 41.4777 42.3658 52.8095 28.0888 52.8095C13.8116 52.8095 2.23742 41.4777 2.23742 27.5004C2.23742 13.5224 13.8116 2.19151 28.0888 2.19151ZM28.0887 6.62853V4.40292C15.0591 4.40292 4.49516 14.7436 4.49516 27.5014C4.49516 40.2591 15.0591 50.6009 28.0887 50.6009C41.1174 50.6009 51.6649 40.2601 51.6649 27.5023L49.4226 27.5014C49.4226 39.0284 39.8623 48.3734 28.0887 48.3734C16.3142 48.3734 6.77033 39.0284 6.77033 27.5014C6.77033 15.9744 16.3132 6.62853 28.0887 6.62853ZM28.0887 8.85132L28.0877 11.0646C18.8148 11.0646 11.2994 18.4246 11.2994 27.5014C11.2994 36.5801 18.8148 43.9382 28.0877 43.9382C37.3578 43.9382 44.8897 36.5801 44.8897 27.5014H47.1358C47.1358 37.8137 38.6187 46.1704 28.0877 46.1704C17.5559 46.1704 9.01747 37.8128 9.01747 27.5004C9.01747 17.19 17.5559 8.85227 28.0887 8.85132ZM28.0878 15.4429L28.0868 13.2524C20.0506 13.2533 13.5348 19.6326 13.5348 27.5004C13.5348 35.3702 20.0506 41.7496 28.0878 41.7496C36.1249 41.7496 42.6561 35.3702 42.6561 27.5004L40.4264 27.5014C40.4264 34.1621 34.89 39.5609 28.0878 39.5609C21.2846 39.5609 15.7694 34.1621 15.7694 27.5004C15.7694 20.8406 21.2846 15.4429 28.0878 15.4429ZM106.74 27.5128V34.3222C106.74 35.5208 107.191 36.2039 108.334 36.2039C109.487 36.2039 109.911 35.5332 109.911 34.3222L109.912 27.5128H112.207V34.4057C112.207 36.9117 110.889 38.1368 108.328 38.1368C105.738 38.1368 104.422 36.9117 104.422 34.4057V27.5128H106.74ZM84.4239 27.8615C83.6845 27.527 82.9182 27.346 81.9503 27.346C79.4894 27.346 78.4278 28.7379 78.4278 30.5068C78.4278 32.432 79.8205 33.0428 81.0098 33.5644C81.8961 33.9531 82.6694 34.2923 82.6694 35.0888C82.6694 35.806 82.2078 36.2883 81.2381 36.2883C80.2839 36.2883 79.4749 35.9728 78.6823 35.5351L78.3833 37.3997C79.2078 37.8725 80.2277 38.1368 81.3378 38.1368C83.642 38.1368 84.9465 36.8843 84.9465 34.8386C84.9465 32.7751 83.4473 32.1301 82.2317 31.6071C81.4029 31.2505 80.7059 30.9507 80.7059 30.2965C80.7059 29.7554 80.9894 29.2201 82.1497 29.2201C82.8774 29.2201 83.522 29.4106 84.1684 29.6863L84.4239 27.8615ZM103.316 27.5128V29.3926H101.119V37.9559H98.8013V29.3926H96.6034V27.5128H103.316ZM91.8933 29.3926V27.5128H85.1797V29.3926H87.3774V37.9559H89.6954V29.3926H91.8933ZM120 27.5128V29.3926H117.802V37.9559H115.486V29.3926H113.287V27.5128H120ZM74.6845 33.6098L71.4049 27.5128H69.2884V37.9559H71.4049V31.8598L74.6845 37.9559H76.8019V27.5128H74.6845V33.6098ZM95.4184 27.5128V37.9549H93.0774V27.5128H95.4184ZM66.9581 37.9549V27.5128H64.6181V37.9549H66.9581ZM28.0887 17.6353L28.0868 19.8268C23.7562 19.8268 20.2481 23.2624 20.2481 27.5014C20.2481 31.7404 23.7571 35.1759 28.0868 35.1759C32.4165 35.1759 35.94 31.7404 35.94 27.5014H38.1619C38.1619 32.956 33.6581 37.3751 28.0877 37.3751C22.5175 37.3751 18.001 32.956 18.001 27.5004C18.001 22.0468 22.5165 17.6353 28.0887 17.6353ZM83.6507 18.382C83.6507 14.3846 82.1352 12.662 78.9948 12.662C75.8565 12.662 74.339 14.3846 74.339 18.382C74.339 22.3793 75.9145 24.117 78.9948 24.117C82.1342 24.117 83.6507 22.4656 83.6507 18.382ZM69.4249 12.8061C70.3829 12.8061 71.6304 12.9937 72.3968 13.2969L72.1617 15.1871C71.4707 14.9133 70.384 14.7398 69.5575 14.7398C67.5804 14.7398 66.2536 15.6192 66.2536 18.3895C66.2536 21.2035 67.5668 22.0809 69.2623 22.0809C69.5952 22.0809 69.9987 22.062 70.2658 22.0165V19.3418H68.7446V17.4677H72.5739V23.4244C71.823 23.7702 70.442 24.0157 69.3213 24.0157C65.8578 24.0157 63.8226 22.1993 63.8226 18.4189C63.8226 14.5513 66.0184 12.8061 69.4249 12.8061ZM104.368 17.2516V12.9795H101.996V23.7996H104.368V19.1816H107.922V23.7996H110.294V12.9795H107.922V17.2516H104.368ZM100.66 12.9795V14.9274H98.2588V23.7996H95.859V14.9274H93.4575V12.9795H100.66ZM92.4691 14.9095V12.9795H85.502V23.7996H92.6236V21.8696H87.8749V19.194H91.7748V17.2848H87.8749V14.9095H92.4691ZM119.609 12.9795V14.9095H115.015V17.2848H118.916V19.194H115.015V21.8696H119.765V23.7996H112.643V12.9795H119.609ZM76.7701 18.3829C76.7691 15.5244 77.5056 14.5883 78.9948 14.5883C80.4998 14.5883 81.2216 15.5102 81.2216 18.3829C81.2216 21.2414 80.4998 22.206 79.0104 22.206C77.5056 22.206 76.7701 21.2547 76.7701 18.3829ZM45.9339 0.000947877C51.5913 0.000947877 56.1774 4.49008 56.1774 10.029C56.1774 15.5698 51.5913 20.059 45.9339 20.059C40.2745 20.059 35.6884 15.5698 35.6894 10.029C35.6894 4.49008 40.2745 0.000947877 45.9339 0.000947877ZM37.9723 10.03C37.9723 5.72464 41.5355 2.23415 45.9339 2.23415C50.3284 2.23415 53.8946 5.72464 53.8946 10.03C53.8946 14.3344 50.3284 17.8248 45.9339 17.8248C41.5355 17.8248 37.9723 14.3344 37.9723 10.03Z" fill="#A0C814"/>
</svg>
