<svg xmlns="http://www.w3.org/2000/svg" width="158" height="99" viewBox="0 0 158 99" fill="none">
<path d="M102.138 3.8938V25.9379H97.4517V3.8938H102.138ZM104.985 1.01245H94.5703V28.7846H104.985V1.01245Z" fill="black"/>
<path d="M122.377 28.8193H111.789V1.01245H114.636V25.9726H119.531V1.01245H122.377V28.8193Z" fill="black"/>
<path d="M84.6075 1.01245V10.0037H3.7212V1.01245H0.839844V10.0037V11.4617V28.7846H3.7212V12.8503H84.6075V28.7846H87.4888V11.4617V10.0037V1.01245H84.6075Z" fill="black"/>
<path d="M66.8334 98.2494H18.0586V70.4426H20.9052V95.4028H63.9867V70.4426H66.8334V98.2494Z" fill="black"/>
<path d="M11.254 73.2546V70.408H0.804688V80.8225V82.2805V98.2495H11.254V95.4029H3.65133V82.2805H11.254V80.8225V79.4339H3.65133V73.2546H11.254Z" fill="black"/>
<path d="M157.057 3.82441V0.977783H146.607V20.4183V21.8763V28.8193H157.057V25.9727H149.454V23.2649H157.057V21.8763V20.4183H149.454V3.82441H157.057Z" fill="black"/>
<path d="M139.699 16.9467H132.097V3.82441H139.699V0.977783H129.25V18.4048H129.285V19.7934H136.887V25.9727H129.285V28.8193H139.734V16.9467H139.699Z" fill="black"/>
<path d="M97.3818 38.5395H157.057V35.6929H94.5352V49.2665V54.5085V63.4997H97.3818V54.5085H157.057V51.6618H97.3818V49.2665V38.5395Z" fill="black"/>
<path d="M139.735 70.408H129.217V86.7588V91.3065V98.2148H132.098V91.3065H139.735V70.408ZM132.098 73.2546H136.854L136.889 88.4945L132.063 88.4598" fill="black"/>
<path d="M157.057 73.2546V70.408H146.607V82.9054V84.3634V98.2495H157.057V95.4029H149.454V85.752H157.057V82.9054H149.454V73.2546H157.057Z" fill="black"/>
<path d="M84.781 38.6089V60.653H3.7212V38.6089H84.781ZM87.6277 35.7275H0.839844V63.4996H87.6277V35.7275Z" fill="black"/>
<path d="M119.496 73.324V95.3681H97.4517V73.324H119.496ZM122.342 70.4426H94.5703V98.2147H122.342V70.4426Z" fill="black"/>
<path d="M84.8159 90.6122V98.2148H87.6972V87.7655H82.8371V70.408H73.707V84.6759V89.2235V98.2148H76.5884V90.6122H84.8159ZM76.5537 73.2546H79.921V87.7308H76.5537" fill="black"/>
</svg>