<svg width="24" height="25" viewBox="0 0 24 25" fill="none" xmlns="http://www.w3.org/2000/svg">
<path fill-rule="evenodd" clip-rule="evenodd" d="M7.08649 13.5691L5.38412 12.2072C5.13521 12.9255 5 13.6969 5 14.4999C5 18.3659 8.13401 21.4999 12 21.4999C15.866 21.4999 19 18.3659 19 14.4999C19 13.6969 18.8648 12.9255 18.6159 12.2072L16.9135 13.5691C16.9703 13.8707 17 14.1818 17 14.4999C17 17.2614 14.7614 19.4999 12 19.4999C9.23858 19.4999 7 17.2613 7 14.4999C7 14.1818 7.02971 13.8707 7.08649 13.5691Z" fill="white"/>
<path d="M12 13.5L11.3753 14.2809L12 14.7806L12.6247 14.2809L12 13.5ZM13 4.5C13 3.94772 12.5523 3.5 12 3.5C11.4477 3.5 11 3.94771 11 4.5L13 4.5ZM6.37531 10.2809L11.3753 14.2809L12.6247 12.7191L7.6247 8.71913L6.37531 10.2809ZM12.6247 14.2809L17.6247 10.2809L16.3753 8.71913L11.3753 12.7191L12.6247 14.2809ZM13 13.5L13 4.5L11 4.5L11 13.5L13 13.5Z" fill="white"/>
</svg>
