<svg width="333" height="104" viewBox="0 0 333 104" fill="none" xmlns="http://www.w3.org/2000/svg">
<path d="M26.3659 91.9813H49.9945L75.9746 12.0186H57.0496L51.5623 29.8005H22.5584L17.0712 12.0186H0.0495605L26.3659 91.9813ZM26.4778 42.6616H47.6429L37.1164 77.2189L26.4778 42.6616Z" fill="black"/>
<path d="M89.3186 42V10.76H95.3466V23.344H98.4266L107.711 10.76H114.487L103.135 25.896L115.367 42H108.019L98.3386 28.844H95.3466V42H89.3186ZM121.545 51.944C120.929 51.944 120.298 51.8707 119.653 51.724C119.037 51.5773 118.318 51.3573 117.497 51.064L118.641 46.4C119.081 46.6053 119.491 46.752 119.873 46.84C120.283 46.928 120.65 46.972 120.973 46.972C121.706 46.972 122.351 46.708 122.909 46.18C123.495 45.652 123.965 44.8453 124.317 43.76L125.021 41.868L115.693 18.944H121.809L128.013 35.972L133.469 18.944H139.101L129.685 45.3C129.186 46.708 128.526 47.896 127.705 48.864C126.883 49.8613 125.945 50.624 124.889 51.152C123.833 51.68 122.718 51.944 121.545 51.944ZM141.512 42.308V37.072C142.216 37.0427 142.847 36.8667 143.404 36.544C143.962 36.2213 144.446 35.6787 144.856 34.916C145.296 34.124 145.634 33.024 145.868 31.616C146.132 30.208 146.308 28.404 146.396 26.204L146.704 18.944H163.996V42H158.1V24.092H151.896L151.808 26.776C151.691 29.7973 151.398 32.3053 150.928 34.3C150.459 36.2947 149.799 37.8787 148.948 39.052C148.127 40.196 147.1 41.0173 145.868 41.516C144.636 42.0147 143.184 42.2787 141.512 42.308ZM170.232 42V18.944H176.128V26.204H181.364C184.122 26.204 186.234 26.908 187.7 28.316C189.167 29.724 189.9 31.5867 189.9 33.904C189.9 35.4587 189.592 36.852 188.976 38.084C188.36 39.316 187.451 40.284 186.248 40.988C185.046 41.6627 183.55 42 181.76 42H170.232ZM176.128 37.512H180.836C181.628 37.512 182.274 37.3507 182.772 37.028C183.3 36.7053 183.682 36.28 183.916 35.752C184.18 35.224 184.312 34.6227 184.312 33.948C184.312 33.3027 184.195 32.7307 183.96 32.232C183.726 31.704 183.344 31.2933 182.816 31C182.318 30.6773 181.643 30.516 180.792 30.516H176.128V37.512ZM199.811 42V24.092H192.507V18.944H213.055V24.092H205.707V42H199.811ZM220.67 51.944C220.054 51.944 219.424 51.8707 218.778 51.724C218.162 51.5773 217.444 51.3573 216.622 51.064L217.766 46.4C218.206 46.6053 218.617 46.752 218.998 46.84C219.409 46.928 219.776 46.972 220.098 46.972C220.832 46.972 221.477 46.708 222.034 46.18C222.621 45.652 223.09 44.8453 223.442 43.76L224.146 41.868L214.818 18.944H220.934L227.138 35.972L232.594 18.944H238.226L228.81 45.3C228.312 46.708 227.652 47.896 226.83 48.864C226.009 49.8613 225.07 50.624 224.014 51.152C222.958 51.68 221.844 51.944 220.67 51.944ZM256.126 42.44C254.336 42.44 252.752 42.044 251.374 41.252C250.024 40.4307 248.968 39.3307 248.206 37.952V51.372H242.31V18.944H247.458V22.904C248.338 21.5547 249.452 20.4987 250.802 19.736C252.151 18.944 253.691 18.548 255.422 18.548C256.976 18.548 258.399 18.856 259.69 19.472C261.01 20.088 262.154 20.9533 263.122 22.068C264.09 23.1533 264.838 24.4147 265.366 25.852C265.923 27.26 266.202 28.7853 266.202 30.428C266.202 32.6573 265.762 34.6813 264.882 36.5C264.031 38.3187 262.843 39.7707 261.318 40.856C259.822 41.912 258.091 42.44 256.126 42.44ZM254.146 37.424C255.055 37.424 255.876 37.2333 256.61 36.852C257.343 36.4707 257.974 35.9573 258.502 35.312C259.059 34.6373 259.47 33.8893 259.734 33.068C260.027 32.2173 260.174 31.3373 260.174 30.428C260.174 29.46 260.012 28.5653 259.69 27.744C259.396 26.9227 258.956 26.204 258.37 25.588C257.783 24.9427 257.094 24.444 256.302 24.092C255.539 23.74 254.703 23.564 253.794 23.564C253.236 23.564 252.664 23.6667 252.078 23.872C251.52 24.048 250.978 24.312 250.45 24.664C249.922 25.016 249.452 25.4267 249.042 25.896C248.66 26.3653 248.382 26.8787 248.206 27.436V32.848C248.558 33.6987 249.027 34.476 249.614 35.18C250.23 35.884 250.934 36.4413 251.726 36.852C252.518 37.2333 253.324 37.424 254.146 37.424ZM271.076 42V18.944H276.972V27.744H286.3V18.944H292.196V42H286.3V32.672H276.972V42H271.076ZM296.884 35.18C296.884 33.684 297.295 32.3787 298.116 31.264C298.967 30.12 300.14 29.24 301.636 28.624C303.132 28.008 304.848 27.7 306.784 27.7C307.752 27.7 308.735 27.7733 309.732 27.92C310.729 28.0667 311.595 28.3013 312.328 28.624V27.392C312.328 25.9253 311.888 24.796 311.008 24.004C310.157 23.212 308.881 22.816 307.18 22.816C305.919 22.816 304.716 23.036 303.572 23.476C302.428 23.916 301.225 24.5613 299.964 25.412L298.072 21.54C299.597 20.5427 301.152 19.7947 302.736 19.296C304.349 18.7973 306.036 18.548 307.796 18.548C311.081 18.548 313.633 19.3693 315.452 21.012C317.3 22.6547 318.224 25.0013 318.224 28.052V35.4C318.224 36.016 318.327 36.456 318.532 36.72C318.767 36.984 319.133 37.1453 319.632 37.204V42C319.104 42.088 318.62 42.1613 318.18 42.22C317.769 42.2787 317.417 42.308 317.124 42.308C315.951 42.308 315.056 42.044 314.44 41.516C313.853 40.988 313.487 40.3427 313.34 39.58L313.208 38.392C312.211 39.6827 310.964 40.68 309.468 41.384C307.972 42.088 306.447 42.44 304.892 42.44C303.367 42.44 301.988 42.132 300.756 41.516C299.553 40.8707 298.6 40.0053 297.896 38.92C297.221 37.8053 296.884 36.5587 296.884 35.18ZM311.228 36.368C311.551 36.016 311.815 35.664 312.02 35.312C312.225 34.96 312.328 34.6373 312.328 34.344V32.012C311.624 31.7187 310.861 31.4987 310.04 31.352C309.219 31.176 308.441 31.088 307.708 31.088C306.183 31.088 304.921 31.4253 303.924 32.1C302.956 32.7453 302.472 33.6107 302.472 34.696C302.472 35.2827 302.633 35.84 302.956 36.368C303.279 36.896 303.748 37.3213 304.364 37.644C304.98 37.9667 305.713 38.128 306.564 38.128C307.444 38.128 308.309 37.9667 309.16 37.644C310.011 37.292 310.7 36.8667 311.228 36.368ZM97.7226 62.76H103.883L115.367 94H109.119L106.215 86.212H95.3026L92.4426 94H86.1946L97.7226 62.76ZM105.115 81.944L100.803 69.052L96.3146 81.944H105.115ZM119.101 94V70.944H134.369V76.092H124.997V94H119.101ZM149.322 94.44C147.474 94.44 145.802 94.132 144.306 93.516C142.81 92.8707 141.534 92.0053 140.478 90.92C139.422 89.8053 138.6 88.544 138.014 87.136C137.456 85.6987 137.178 84.188 137.178 82.604C137.178 80.404 137.662 78.3947 138.63 76.576C139.627 74.7573 141.035 73.3053 142.854 72.22C144.702 71.1053 146.872 70.548 149.366 70.548C151.888 70.548 154.044 71.1053 155.834 72.22C157.623 73.3053 158.987 74.7573 159.926 76.576C160.894 78.3653 161.378 80.3013 161.378 82.384C161.378 82.736 161.363 83.1027 161.334 83.484C161.304 83.836 161.275 84.1293 161.246 84.364H143.426C143.543 85.5373 143.88 86.564 144.438 87.444C145.024 88.324 145.758 88.9987 146.638 89.468C147.547 89.908 148.515 90.128 149.542 90.128C150.715 90.128 151.815 89.8493 152.842 89.292C153.898 88.7053 154.616 87.9427 154.998 87.004L160.058 88.412C159.5 89.5853 158.694 90.6267 157.638 91.536C156.611 92.4453 155.394 93.164 153.986 93.692C152.578 94.1907 151.023 94.44 149.322 94.44ZM143.294 80.624H155.35C155.232 79.4507 154.895 78.4387 154.338 77.588C153.81 76.708 153.106 76.0333 152.226 75.564C151.346 75.0653 150.363 74.816 149.278 74.816C148.222 74.816 147.254 75.0653 146.374 75.564C145.523 76.0333 144.819 76.708 144.262 77.588C143.734 78.4387 143.411 79.4507 143.294 80.624ZM165.849 94V70.944H171.745V79.744H181.073V70.944H186.969V94H181.073V84.672H171.745V94H165.849ZM211.193 99.588V94H193.241V70.944H199.137V88.852H207.233V70.944H213.129V88.852H216.385V99.588H211.193ZM221.105 94V70.944H227.001V94H221.105ZM221.105 67.732V61.88H227.001V67.732H221.105ZM231.968 94L237.82 85.024C236.442 84.6427 235.342 83.8947 234.52 82.78C233.728 81.6653 233.332 80.1987 233.332 78.38C233.332 76.8547 233.684 75.5347 234.388 74.42C235.092 73.3053 236.06 72.44 237.292 71.824C238.524 71.1787 239.947 70.856 241.56 70.856H252.516V94H246.62V86.036H243.496L238.436 94H231.968ZM242.264 81.812H246.62V75.388H242.484C241.428 75.388 240.592 75.6813 239.976 76.268C239.36 76.8547 239.052 77.6173 239.052 78.556C239.052 79.4947 239.316 80.272 239.844 80.888C240.402 81.504 241.208 81.812 242.264 81.812Z" fill="black"/>
</svg>
